# xmcd
#
# Track frame offsets:
#  150
#  14687
#  32238
#  45195
#  66036
#  87131
#  107290
#  121348
#  146083
#  159450
#  182054
#  202593
#  226344
#  245295
#  264376
#  283436
#
# Disc length: 3999 seconds
#
# Revision: 0
# Processed by: cddbd v1.5.2PL0 Copyright (c) Steve Scherf et al.
# Submitted via: AltoMP3_Maker 3.0
#
DISCID=d10f9d10
DTITLE=Frank Diez Colin Hodgkinson feat Hubert Hofherr - Electric Blues Duo Live L'Inoui Luxemburg
DYEAR=1900
DGENRE=
TTITLE0=Dirty T B Blues
TTITLE1=Travellin Riverside Blues
TTITLE2=Blues For Jimmy Yancey
TTITLE3=B and O
TTITLE4=Black Jack
TTITLE5=If You Live
TTITLE6=Lucky At Cards
TTITLE7=Come In My Kitchen
TTITLE8=Snabs Rag
TTITLE9=How Can A Poor Man
TTITLE10=Goin Away Babe
TTITLE11=Parchman Farm
TTITLE12=Down South
TTITLE13=Out On The Highway
TTITLE14=Shirl The Girl
TTITLE15=Sixteen Nights
EXTD=
EXTT0=
EXTT1=
EXTT2=
EXTT3=
EXTT4=
EXTT5=
EXTT6=
EXTT7=
EXTT8=
EXTT9=
EXTT10=
EXTT11=
EXTT12=
EXTT13=
EXTT14=
EXTT15=
PLAYORDER=
